<?xml version="1.0" encoding="UTF-8" ?>
<!DOCTYPE svg PUBLIC "-//W3C//DTD SVG 1.1//EN" "http://www.w3.org/Graphics/SVG/1.1/DTD/svg11.dtd">
<svg width="1257pt" height="506pt" viewBox="0 0 1257 506" version="1.1" xmlns="http://www.w3.org/2000/svg">
<g id="#ffcc05ff">
<path fill="#ffcc05" opacity="1.00" d=" M 279.84 6.85 C 295.59 -0.37 314.42 -0.39 330.15 6.92 C 337.15 10.58 343.91 14.88 349.46 20.56 C 358.58 30.50 364.92 43.30 365.91 56.85 C 368.12 75.68 360.57 94.98 347.94 108.80 C 340.53 113.17 333.72 118.80 325.38 121.38 C 310.80 126.30 293.88 126.42 280.01 119.24 C 280.21 118.08 280.42 116.92 280.66 115.78 C 295.55 92.95 310.19 69.96 325.07 47.12 C 330.29 39.03 335.57 30.99 340.58 22.78 C 315.98 52.26 291.67 81.99 267.12 111.52 C 256.14 103.36 248.60 90.94 245.36 77.74 C 243.38 70.23 243.89 62.40 243.47 54.72 C 245.46 42.94 251.34 31.94 258.86 22.74 C 264.44 15.80 272.03 10.93 279.84 6.85 Z" />
<path fill="#ffcc05" opacity="1.00" d=" M 41.56 250.59 C 65.79 221.97 101.66 203.55 139.02 200.43 C 156.11 199.58 173.43 200.00 190.00 204.70 C 172.78 225.58 155.59 246.48 138.40 267.38 C 111.72 299.46 84.94 331.45 58.43 363.66 C 58.14 363.99 57.56 364.63 57.27 364.95 C 63.08 366.40 69.08 365.73 75.00 365.78 C 125.67 365.78 176.33 365.78 227.00 365.78 C 250.08 365.94 273.18 365.47 296.25 365.99 C 296.31 375.62 292.61 384.62 290.94 393.98 C 287.31 406.02 281.24 417.13 275.35 428.17 C 273.50 431.16 272.08 434.50 269.62 437.05 C 266.72 439.32 264.02 441.86 261.76 444.77 C 256.50 451.49 249.85 456.90 243.35 462.35 C 226.16 476.35 205.46 485.67 184.02 490.96 C 154.27 497.84 122.52 494.57 94.56 482.43 C 63.98 469.48 38.39 445.51 22.78 416.27 C 3.90 380.99 0.61 337.96 13.24 300.07 C 15.27 295.12 17.70 290.33 19.23 285.18 C 24.79 272.57 32.78 261.17 41.56 250.59 Z" />
<path fill="#ffcc05" opacity="1.00" d=" M 186.96 261.12 C 196.65 245.97 206.17 230.71 216.05 215.68 C 217.41 214.50 219.01 216.24 220.36 216.66 C 235.23 224.32 248.64 234.76 259.95 247.09 C 266.62 254.92 272.84 263.15 278.26 271.90 C 288.12 288.98 295.30 307.97 297.12 327.68 C 246.16 327.41 195.20 327.88 144.24 327.44 C 147.11 322.08 150.66 317.14 153.90 312.00 C 164.88 295.01 175.80 277.99 186.96 261.12 Z" />
<path fill="#ffcc05" opacity="1.00" d=" M 433.33 262.03 C 442.24 258.97 451.76 259.23 461.04 259.49 C 472.27 260.25 483.17 263.60 493.30 268.43 C 517.36 280.37 534.64 304.51 538.96 330.95 C 541.35 348.17 539.65 366.25 532.20 382.11 C 529.89 386.79 527.85 391.66 524.84 395.95 C 516.13 406.55 505.97 416.32 493.62 422.55 C 473.78 432.72 449.95 434.92 428.65 428.22 C 406.16 421.24 386.69 404.71 376.63 383.36 C 373.89 377.92 371.66 372.18 370.87 366.10 C 377.24 365.56 383.62 365.74 390.00 365.79 C 431.67 365.77 473.33 365.80 515.00 365.77 C 522.16 365.69 529.34 366.12 536.49 365.52 C 535.54 363.53 534.11 361.85 532.35 360.55 C 526.53 355.75 521.53 350.10 516.14 344.85 C 488.61 317.18 460.84 289.73 433.33 262.03 Z" />
<path fill="#ffcc05" opacity="1.00" d=" M 396.86 280.85 C 405.47 273.17 415.62 266.77 426.91 264.02 C 433.92 285.13 440.76 306.30 447.51 327.49 C 421.34 327.69 395.17 327.69 369.00 327.49 C 369.29 325.99 369.62 324.51 370.00 323.03 C 375.50 307.17 384.16 292.04 396.86 280.85 Z" />
</g>
<g id="#000000ff">
<path fill="#000000" opacity="1.00" d=" M 267.12 111.52 C 291.67 81.99 315.98 52.26 340.58 22.78 C 335.57 30.99 330.29 39.03 325.07 47.12 C 310.19 69.96 295.55 92.95 280.66 115.78 C 279.24 118.00 277.86 120.25 276.47 122.49 C 263.94 141.89 251.53 161.37 238.82 180.66 C 231.60 192.57 223.67 204.02 216.05 215.68 C 206.17 230.71 196.65 245.97 186.96 261.12 C 175.80 277.99 164.88 295.01 153.90 312.00 C 150.66 317.14 147.11 322.08 144.24 327.44 C 195.20 327.88 246.16 327.41 297.12 327.68 C 304.05 328.51 311.03 328.11 318.00 328.19 C 334.73 328.21 351.45 328.15 368.18 328.23 C 368.76 326.48 369.36 324.75 370.00 323.03 C 369.62 324.51 369.29 325.99 369.00 327.49 C 395.17 327.69 421.34 327.69 447.51 327.49 C 440.76 306.30 433.92 285.13 426.91 264.02 C 425.55 260.10 424.30 256.15 423.09 252.19 C 426.55 255.42 429.93 258.73 433.33 262.03 C 460.84 289.73 488.61 317.18 516.14 344.85 C 521.53 350.10 526.53 355.75 532.35 360.55 C 533.10 361.77 533.80 363.03 534.51 364.29 C 478.72 364.66 422.93 364.30 367.14 364.47 C 344.00 364.58 320.86 364.54 297.72 364.48 C 220.47 364.39 143.22 364.45 65.97 364.46 C 63.44 364.43 60.93 364.04 58.43 363.66 C 84.94 331.45 111.72 299.46 138.40 267.38 C 155.59 246.48 172.78 225.58 190.00 204.70 C 214.65 174.39 240.24 144.87 264.74 114.45 C 265.53 113.47 266.32 112.49 267.12 111.52 Z" />
<path fill="#000000" opacity="1.00" d=" M 1116.34 181.39 C 1137.08 165.47 1163.13 157.77 1188.96 155.91 C 1211.75 154.26 1234.78 157.84 1256.41 165.02 C 1254.40 176.00 1251.37 186.77 1249.38 197.76 C 1248.60 201.72 1247.85 205.72 1246.28 209.46 C 1232.92 202.50 1218.26 196.93 1202.99 197.24 C 1196.67 197.25 1190.33 197.07 1184.05 197.75 C 1170.38 199.86 1157.30 205.81 1146.79 214.81 C 1131.99 227.69 1123.56 246.81 1121.55 266.11 C 1121.21 275.76 1120.60 285.65 1123.22 295.07 C 1126.91 307.85 1135.63 319.57 1147.97 325.10 C 1160.28 331.42 1174.55 331.17 1188.01 330.28 C 1198.83 328.95 1209.51 326.04 1219.33 321.27 C 1221.67 320.15 1224.08 319.16 1226.56 318.33 C 1225.19 327.10 1222.57 335.62 1221.11 344.38 C 1219.85 349.72 1218.89 355.12 1217.40 360.40 C 1216.98 362.61 1214.61 363.16 1212.85 363.91 C 1200.43 368.50 1187.27 371.32 1174.02 371.57 C 1162.65 371.68 1151.13 372.24 1139.97 369.65 C 1130.94 367.51 1122.07 364.42 1113.84 360.11 C 1103.19 353.85 1093.12 345.93 1086.63 335.25 C 1078.35 323.45 1073.89 309.32 1072.39 295.06 C 1070.28 280.62 1071.86 265.96 1074.34 251.67 C 1079.57 224.31 1094.15 198.50 1116.34 181.39 Z" />
<path fill="#000000" opacity="1.00" d=" M 668.44 245.23 C 684.99 216.66 701.27 187.93 718.00 159.47 C 736.03 159.18 754.08 159.34 772.12 159.37 C 774.43 159.28 774.33 162.35 774.71 163.96 C 776.69 181.01 779.42 197.97 781.90 214.96 C 783.83 231.32 786.58 247.58 788.86 263.90 C 791.03 281.12 793.58 298.30 796.24 315.46 C 798.18 333.16 801.33 350.70 803.64 368.34 C 787.83 368.32 772.01 368.20 756.20 368.41 C 754.94 364.74 754.67 360.87 754.35 357.04 C 752.82 345.17 751.50 333.27 749.61 321.45 C 724.87 321.50 700.13 321.42 675.39 321.49 C 667.07 337.09 658.98 352.82 650.52 368.34 C 633.05 368.25 615.58 368.35 598.11 368.29 C 615.08 337.94 632.84 308.02 649.83 277.67 C 656.21 266.96 662.63 256.26 668.44 245.23 M 732.76 210.71 C 727.91 220.45 722.53 229.90 717.51 239.55 C 713.32 247.00 709.81 254.82 705.32 262.11 C 701.37 269.85 696.67 277.23 693.31 285.24 C 710.95 285.50 728.60 285.50 746.24 285.24 C 745.13 272.48 743.43 259.78 742.18 247.04 C 741.00 237.53 740.51 227.95 739.25 218.46 C 738.11 211.26 738.87 203.97 738.58 196.73 C 736.49 201.33 734.95 206.16 732.76 210.71 Z" />
<path fill="#000000" opacity="1.00" d=" M 925.08 204.05 C 933.73 189.19 942.00 174.12 950.99 159.47 C 969.65 159.22 988.33 159.25 1007.00 159.45 C 1016.66 228.67 1026.71 297.83 1036.44 367.03 C 1035.63 368.62 1033.45 368.04 1032.02 368.30 C 1022.34 368.30 1012.67 368.27 1003.00 368.28 C 998.19 368.26 993.35 368.56 988.60 367.74 C 986.96 352.29 984.64 336.91 982.75 321.49 C 957.96 321.43 933.17 321.48 908.38 321.47 C 900.05 336.75 892.28 352.33 884.05 367.66 C 866.65 367.81 849.25 367.90 831.86 367.61 C 833.24 363.69 835.55 360.22 837.65 356.67 C 866.72 305.75 896.08 255.00 925.08 204.05 M 965.75 210.71 C 957.98 225.84 949.76 240.72 941.73 255.70 C 936.77 265.66 930.60 275.01 926.26 285.26 C 943.91 285.48 961.59 285.51 979.24 285.25 C 976.64 261.51 974.40 237.75 971.74 214.03 C 971.26 208.26 971.78 202.48 971.57 196.71 C 969.46 201.31 968.05 206.20 965.75 210.71 Z" />
</g>
<g id="#d9a600ff">
<path fill="#d9a600" opacity="1.00" d=" M 242.19 69.00 C 242.24 64.23 241.91 59.30 243.47 54.72 C 243.89 62.40 243.38 70.23 245.36 77.74 C 248.60 90.94 256.14 103.36 267.12 111.52 C 266.32 112.49 265.53 113.47 264.74 114.45 C 263.48 113.68 262.21 112.91 261.10 111.94 C 249.60 100.79 242.15 85.15 242.19 69.00 Z" />
<path fill="#d9a600" opacity="1.00" d=" M 325.38 121.38 C 333.72 118.80 340.53 113.17 347.94 108.80 C 334.96 123.31 314.55 130.79 295.25 128.32 C 288.80 127.08 282.28 125.67 276.47 122.49 C 277.86 120.25 279.24 118.00 280.66 115.78 C 280.42 116.92 280.21 118.08 280.01 119.24 C 293.88 126.42 310.80 126.30 325.38 121.38 Z" />
<path fill="#d9a600" opacity="1.00" d=" M 2.54 335.15 C 5.04 317.68 10.63 300.60 19.23 285.18 C 17.70 290.33 15.27 295.12 13.24 300.07 C 0.61 337.96 3.90 380.99 22.78 416.27 C 38.39 445.51 63.98 469.48 94.56 482.43 C 122.52 494.57 154.27 497.84 184.02 490.96 C 205.46 485.67 226.16 476.35 243.35 462.35 C 249.85 456.90 256.50 451.49 261.76 444.77 C 264.02 441.86 266.72 439.32 269.62 437.05 C 265.55 445.07 259.29 451.69 253.38 458.37 C 243.15 468.97 231.43 478.21 218.45 485.22 C 201.28 495.47 181.64 501.02 161.87 503.37 C 155.26 503.78 148.63 503.72 142.01 503.67 C 131.17 503.78 120.44 501.65 109.99 498.96 C 90.53 494.17 72.57 484.34 56.81 472.11 C 24.76 446.89 3.93 407.80 1.42 367.05 C 1.34 356.41 0.73 345.68 2.54 335.15 Z" />
<path fill="#d9a600" opacity="1.00" d=" M 532.35 360.55 C 534.11 361.85 535.54 363.53 536.49 365.52 C 529.34 366.12 522.16 365.69 515.00 365.77 C 473.33 365.80 431.67 365.77 390.00 365.79 C 383.62 365.74 377.24 365.56 370.87 366.10 C 371.66 372.18 373.89 377.92 376.63 383.36 C 386.69 404.71 406.16 421.24 428.65 428.22 C 449.95 434.92 473.78 432.72 493.62 422.55 C 505.97 416.32 516.13 406.55 524.84 395.95 C 515.68 411.87 500.77 424.16 483.90 431.18 C 468.11 437.49 450.45 439.36 433.79 435.71 C 414.30 431.69 396.32 420.64 384.04 404.98 C 375.18 393.99 369.27 380.74 366.67 366.89 C 366.67 366.41 366.66 365.44 366.66 364.95 L 367.14 364.47 C 422.93 364.30 478.72 364.66 534.51 364.29 C 533.80 363.03 533.10 361.77 532.35 360.55 Z" />
<path fill="#d9a600" opacity="1.00" d=" M 57.27 364.95 C 57.56 364.63 58.14 363.99 58.43 363.66 C 60.93 364.04 63.44 364.43 65.97 364.46 C 143.22 364.45 220.47 364.39 297.72 364.48 C 296.27 374.46 294.86 384.63 290.94 393.98 C 292.61 384.62 296.31 375.62 296.25 365.99 C 273.18 365.47 250.08 365.94 227.00 365.78 C 176.33 365.78 125.67 365.78 75.00 365.78 C 69.08 365.73 63.08 366.40 57.27 364.95 Z" />
</g>
</svg>
