<svg width="546" height="150" viewBox="0 0 546 150" fill="none" xmlns="http://www.w3.org/2000/svg">
<path d="M51.3131 63.6242L21.5181 63.5982L28.2527 51.9183H44.6435L51.3456 40.515L57.9859 51.8728L51.3131 63.6242Z" fill="#8B8B8B"/>
<path d="M44.6437 51.9185H14.6633L0 25.9463L29.8211 25.956L44.6437 51.9185Z" fill="#565656"/>
<path d="M107.777 85.9365L122.58 111.531H108.633L100.649 97.6652L86.9744 97.5676L93.8944 85.9365H107.777Z" fill="#565656"/>
<path d="M156.735 52.042H143.477L135.418 37.4991L118.373 37.652L111.775 25.9429H141.688L156.735 52.042Z" fill="#565656"/>
<path d="M100.684 150H70.141L55.1492 123.758H85.6307L100.684 150Z" fill="#565656"/>
<path d="M85.6307 123.758H55.1492L62.1246 111.678L78.6911 111.583L86.9743 97.5676L100.649 97.6652L85.6307 123.758Z" fill="#8B8B8B"/>
<path d="M150.065 64.0799L122.596 111.505L107.748 85.9365L135.418 37.4993L150.065 64.0799Z" fill="black"/>
<path d="M51.3131 63.6244L78.6908 111.583L48.9121 111.756L21.5181 63.5984L51.3131 63.6244Z" fill="#565656"/>
<path d="M29.8211 25.9559L0 25.9461L14.9723 0.0129395L44.7836 0.0161929L29.8211 25.9559Z" fill="#8B8B8B"/>
<path d="M141.701 25.9461L111.775 25.9429L126.803 0.0129395H156.513L141.701 25.9461Z" fill="#8B8B8B"/>
<path d="M120.12 11.6473L113.464 0L98.4395 25.9462L105.272 37.7887L118.357 37.6619L111.775 25.943L120.12 11.6473Z" fill="black"/>
<path d="M171.492 25.9461L156.513 0.0129395L141.681 25.9461L156.734 52.042L171.492 25.9461Z" fill="black"/>
<path d="M42.8151 25.9398L51.313 11.3676L44.7834 0.0163574L29.8208 25.9561L44.6435 51.9185L51.3456 40.5152L42.8151 25.9398Z" fill="black"/>
<path d="M98.4396 25.9462L42.8154 25.9397L57.9407 0.00325344L113.464 0L98.4396 25.9462Z" fill="#8B8B8B"/>
<path d="M107.748 85.9365H93.8944L85.4875 71.3351L105.272 37.7888L135.418 37.4993L107.748 85.9365Z" fill="#8B8B8B"/>
<path d="M93.8941 85.9364L78.6907 111.583L51.313 63.6242L57.9858 51.8728L74.2888 51.8923L93.8941 85.9364Z" fill="black"/>
<path d="M96.9363 51.925L57.9861 51.873L42.8315 25.9463H98.4394L105.272 37.7888L96.9363 51.925Z" fill="#565656"/>
<path d="M115.673 123.764L100.649 97.6652L85.6309 123.758L100.685 150L115.673 123.764Z" fill="black"/>
<path d="M211.754 86.0196V63.5311H276.115V52.2792H216.521H207.538L201.023 63.692V67.2792V97.2715H276.115V86.0196H211.754Z" fill="black"/>
<path d="M355.124 52.2869V86.0273H301.907V52.2869H291.269V85.8203L297.784 97.1489L361.417 97.2792H365.77V52.2869H355.124Z" fill="black"/>
<path d="M455.961 68.1223L456.031 63.6001L449.515 52.2792H381.613V97.2715L449.515 97.1795L456.038 85.8586V80.4013L455.961 68.1223ZM445.491 86.0273H392.259V80.4013H445.491V86.0273ZM445.491 69.1647H392.259V63.5464H445.491V69.1647Z" fill="black"/>
<path d="M481.738 86.0273V80.4013H545.939V69.1571H481.738V63.5311H545.939V52.2869H477.553L471.031 63.6997V97.2792H545.939V86.0273H481.738Z" fill="black"/>
</svg>
