<?xml version="1.0" encoding="UTF-8"?>
<svg width="743px" height="156px" viewBox="0 0 743 156" version="1.1" xmlns="http://www.w3.org/2000/svg" xmlns:xlink="http://www.w3.org/1999/xlink">
    <title>编组 9</title>
    <g id="页面-1" stroke="none" stroke-width="1" fill="none" fill-rule="evenodd">
        <g id="HPY" transform="translate(-139.000000, -180.000000)">
            <g id="编组-9" transform="translate(139.000000, 180.000000)">
                <path d="M78,0 C121.07821,0 156,34.9217895 156,78 C156,85.4012017 154.969173,92.5616409 153.04326,99.3455779 C143.759519,132.047103 113.677009,156 78,156 C34.9217895,156 0,121.07821 0,78 C0,34.9217895 34.9217895,0 78,0 Z M101.331283,44 L44.5897398,44 L40.0223587,61.0921114 L69.4297064,61.0921114 L65.6643769,78.1112529 C71.7097724,78.1816402 76.3120544,78.2183209 79.4712229,78.221295 L80.2737675,78.221295 C83.178269,78.2183209 84.6396569,78.1816402 84.6579315,78.1112529 C85.9397437,64.3799485 92.5677448,61.0769231 97.3653599,61.0769231 C103.954364,60.9683509 107.934453,65.7972929 107.99216,70.7196937 C107.99216,77.1674899 102.234161,81.1457606 96.0438517,81 L96.0438517,81 L33.2885213,81 L29,97.2132541 L60.9410824,97.2132541 L55.9936339,118 L77.2476692,118 L82.0826272,97.2132541 L82.0826272,97.2132541 L92.6506341,97.2132541 C107.491327,97.2132541 130.877668,89.6802133 128.879929,63.6242864 C128.152462,52.8706055 120.680554,44 101.331283,44 L101.331283,44 Z" id="形状结合备份-2" fill="#006EFF"></path>
                <g id="编组-6备份" transform="translate(192.000000, 36.000000)">
                    <g id="编组-7" fill="#111622">
                        <path d="M195.579346,16.2317352 C204.571655,16.2317352 217.931897,24.157978 213.48686,48.039609 C209.041823,71.9212399 190.688965,76.7109375 184.129078,76.7205202 C176.786491,76.6511545 170.945418,73.8878442 166.60586,68.4305895 L166.330906,68.0785955 L159.569141,93.5112654 L138.708213,93.5112654 L159.569141,17.7632191 L178.011213,17.7632191 L176.476739,24.1923849 C183.216937,18.8852851 189.584473,16.2317352 195.579346,16.2317352 Z M111.775295,18.6730892 L113.001381,52.2672824 L132.462004,18.6730892 L153.890918,18.6730892 C144.625698,33.5358555 138.003016,44.1360781 134.022874,50.4737571 C118.928064,74.5095962 108.351497,89.4427034 98.5193736,92.0230326 C89.765834,94.0408396 82.138436,92.732287 75.6371797,88.0973748 L75.6371797,88.0973748 L82.7004146,76.7205202 C90.2043848,77.4765134 94.6028181,77.4765134 95.8957147,76.7205202 C97.1886113,75.9645269 97.6750404,74.2936876 97.3550021,71.7080024 L97.3550021,71.7080024 L90.5577377,18.6730892 L111.775295,18.6730892 Z M43.6437242,1.0658141e-12 L34.6722746,29.246915 L60.0951139,29.246915 L68.3866187,1.0658141e-12 L90.5577377,1.0658141e-12 L69.3795021,76.7205202 L48.6037721,76.7205202 L56.009437,46.6999264 L30.1267473,46.6999264 L21.7926436,76.7205202 L6.1817218e-13,76.7205202 L20.8287057,1.0658141e-12 L43.6437242,1.0658141e-12 Z M273.95608,28.2077637 C276.947529,36.4088188 277.012561,44.2540296 274.151175,51.743396 L273.95608,52.24216 L272.496194,52.2428921 C271.77362,52.2432507 271.0621,52.2435981 270.361634,52.2439342 L268.293398,52.2449092 L267.95514,52.2450651 L267.95514,52.2450651 L266.291486,52.2458169 C266.072736,52.245914 265.855214,52.2460099 265.638921,52.2461045 L263.72544,52.2469225 L263.412975,52.2470523 L263.412975,52.2470523 L261.277304,52.2479087 L260.979577,52.2480235 L260.979577,52.2480235 L258.382943,52.2489732 L258.382943,52.2489732 L255.672815,52.249851 C255.498281,52.2499033 255.324975,52.2499544 255.152897,52.2500042 L240.399029,52.2500042 C240.325209,52.2499544 240.252617,52.2499033 240.181254,52.249851 L239.202915,52.2489732 L238.552892,52.2481365 C238.503636,52.2480618 238.455608,52.2479859 238.408809,52.2479087 L238.020777,52.2471803 C237.981347,52.2470956 237.943146,52.2470097 237.906172,52.2469225 L237.606572,52.2461045 L237.563087,52.2459616 L237.563087,52.2459616 L237.373296,52.2452192 C237.351061,52.2451171 237.330055,52.2450138 237.310276,52.2449092 L237.165432,52.2439342 C237.128204,52.2435981 237.102031,52.2432507 237.086911,52.2428921 L237.071411,52.24216 C237.671265,55.6105957 239.38147,60.8111572 247.644287,60.8111572 C252.215576,60.8111572 256.215332,59.6391602 259.643555,57.295166 C265.471849,65.8253801 268.384813,70.0696428 268.382446,70.0279541 C266.127159,73.3039778 254.860429,76.2985558 244.981567,76.2985558 C235.102705,76.2985558 217.066093,67.7973889 218.776978,47.0957507 C221.877963,24.0980482 239.554499,17.8598912 245.71734,17.2558594 C256.512263,15.803833 268.022264,16.9563382 273.95608,28.2077637 Z M309.172852,26.9970703 C316.470384,18.9624463 323.071222,15.4227594 328.975364,16.3780097 C328.987486,16.4497079 328.615149,17.8183789 327.858353,20.4840228 L327.72485,20.9536954 C326.695335,24.5715274 325.030285,30.333335 322.729702,38.239118 C314.979626,38.5632782 308.845376,41.0352921 304.326952,45.6551596 C299.808528,50.2750272 296.714844,60.4894926 295.045898,76.2985558 L295.045898,76.2985558 L274.285403,75.4427537 L289.439163,18.2356204 L311.564947,17.6842726 Z M171.788732,44.1556996 C168.980713,51.3808594 172.597532,58.6255538 177.518635,59.9893021 C182.439737,61.3530504 189.710472,58.648921 192.378913,50.2656262 C195.047353,41.8823314 191.958426,35.6237755 185.632411,34.0295391 C179.306396,32.4353027 174.123674,37.951036 171.788732,44.1556996 Z M238.196777,41.9395752 L260.773341,41.9395752 C260.713241,34.846943 257.999976,31.2657662 252.633545,31.1960449 C245.855469,31.0100098 241.043213,34.5911865 238.196777,41.9395752 Z" id="形状结合"></path>
                    </g>
                    <path d="M486.109265,17.8959313 L492.90653,70.9308445 C493.226396,72.8685486 492.486475,74.5624582 490.686768,76.0125732 C488.88706,77.4626883 485.693945,77.2330622 481.107422,75.3236951 L471.946289,88.4750977 C476.193385,93.4254525 482.693703,94.8917265 491.447242,92.8739194 C505.168112,89.2730332 524.817336,64.2803705 550.394915,17.8959313 L528.013532,17.8959313 L508.552908,51.4901245 L507.326823,17.8959313 L486.109265,17.8959313 Z" id="路径-26备份" fill="#0057FC"></path>
                    <path d="M341.270079,0 L403.434519,0 C421.33482,0.785350011 430.28497,9.30095443 430.28497,25.5468133 C430.409912,46.5007324 405.35376,54.1651206 397.760742,54.1651206 C392.69873,54.1651206 387.464495,54.1651206 382.058035,54.1651206 L376.798156,75.3236951 L353.676206,75.3236951 L359.209701,54.1651206 L324.310232,54.1651206 L328.975651,37.6618475 C370.519878,37.6618475 392.992554,37.6618475 396.393677,37.6618475 C401.495361,37.6618475 408.69104,34.8618913 408.69104,25.5468133 C408.69104,16.2317352 400.03971,14.8352051 394.087871,17.3978512 C390.119978,19.1062819 387.049577,24.8808072 384.876666,34.7214272 L364.566247,34.7214272 L368.29311,17.3978512 L336.301293,17.3978512 L341.270079,0 Z" id="路径-32" fill="#0057FC"></path>
                    <path d="M465.598413,18.8019783 C478.290718,19.8724137 485.26657,28.0869126 482.717187,37.6618475 C481.017597,44.0451375 477.600396,57.3536708 472.465584,77.5874474 L451.552226,77.5874474 L452.766297,72.465742 C445.585641,77.3893804 439.217279,79.0966156 433.66121,77.5874474 C425.327106,75.3236951 421.95032,67.2320777 421.95032,60.1852271 C421.95032,53.1383765 428.922349,42.5514433 441.507611,40.7688407 C449.897785,39.5804391 456.735463,40.1932087 462.020647,42.6071496 C462.758301,38.2056214 461.730282,35.2945106 458.936592,33.8738172 C456.142901,32.4531237 448.890338,32.4531237 437.178901,33.8738172 L435.223718,21.082661 C447.011978,18.8485823 457.136877,18.0883548 465.598413,18.8019783 Z M447.431869,51.9521594 C443.348377,53.8002987 440.108945,59.9572135 446.35215,63.6586806 C448.933338,65.1890135 453.576885,64.3109837 456.432811,60.6797573 C457.598959,59.1970337 458.758051,55.9473158 459.910087,50.9306036 C454.313604,50.3795478 450.154198,50.7200664 447.431869,51.9521594 Z" id="形状结合" fill="#0057FC"></path>
                </g>
            </g>
        </g>
    </g>
</svg>