<?xml version="1.0" encoding="utf-8"?>
<!-- Generator: Adobe Illustrator 26.2.1, SVG Export Plug-In . SVG Version: 6.00 Build 0)  -->
<svg version="1.1" id="图层_1" xmlns="http://www.w3.org/2000/svg" xmlns:xlink="http://www.w3.org/1999/xlink" x="0px" y="0px"
	 viewBox="0 0 158 32" style="enable-background:new 0 0 158 32;" xml:space="preserve">
<style type="text/css">
	.st0{clip-path:url(#SVGID_00000153665491042900378260000007299054220875178642_);enable-background:new    ;}
	.st1{clip-path:url(#SVGID_00000129185835357518668620000006300081630554417835_);}
	.st2{clip-path:url(#SVGID_00000023978037161467124130000003539131145991516567_);}
	
		.st3{clip-path:url(#SVGID_00000098181419543812837190000015956009183275546805_);fill:none;stroke:#65D5FF;stroke-width:16;stroke-miterlimit:10;}
	.st4{clip-path:url(#SVGID_00000010998319406698473200000016755779869230370696_);}
	.st5{clip-path:url(#SVGID_00000103245924977060522180000000577951046091376051_);}
	.st6{fill:#65D5FF;}
</style>
<g>
	<g>
		<defs>
			<rect id="SVGID_1_" x="-10" y="-6" width="180" height="44"/>
		</defs>
		<clipPath id="SVGID_00000111153728056772029150000016345598326030785966_">
			<use xlink:href="#SVGID_1_"  style="overflow:visible;"/>
		</clipPath>
		<g style="clip-path:url(#SVGID_00000111153728056772029150000016345598326030785966_);enable-background:new    ;">
			<g>
				<g>
					<defs>
						<rect id="SVGID_00000163042056766373006350000001187789600617722280_" x="0" y="0" width="174" height="32"/>
					</defs>
					<clipPath id="SVGID_00000176759168541301848090000010310322054110306484_">
						<use xlink:href="#SVGID_00000163042056766373006350000001187789600617722280_"  style="overflow:visible;"/>
					</clipPath>
					<g style="clip-path:url(#SVGID_00000176759168541301848090000010310322054110306484_);">
						<g>
							<defs>
								<path id="SVGID_00000096767988966036414080000014072580117702367401_" d="M13,0c7.2,0,13,5.8,13,13s-5.8,13-13,13
									c-1.8,0-3.5-0.4-5-1v5c0,1.1-0.9,2-2,2H2c-1.1,0-2-0.9-2-2V13v-0.3C0.2,5.7,5.9,0,13,0z"/>
							</defs>
							<clipPath id="SVGID_00000132073494760289542860000016899336609622971558_">
								<use xlink:href="#SVGID_00000096767988966036414080000014072580117702367401_"  style="overflow:visible;"/>
							</clipPath>
							<g style="clip-path:url(#SVGID_00000132073494760289542860000016899336609622971558_);">
								<g>
									<defs>
										<rect id="SVGID_00000097491376452458211750000008969743369499439548_" x="0" y="0" width="158" height="32"/>
									</defs>
									<clipPath id="SVGID_00000137125316072147392700000007186677330846162325_">
										<use xlink:href="#SVGID_00000097491376452458211750000008969743369499439548_"  style="overflow:visible;"/>
									</clipPath>
									
										<path style="clip-path:url(#SVGID_00000137125316072147392700000007186677330846162325_);fill:none;stroke:#65D5FF;stroke-width:16;stroke-miterlimit:10;" d="
										M13,0c7.2,0,13,5.8,13,13s-5.8,13-13,13c-1.8,0-3.5-0.4-5-1v5c0,1.1-0.9,2-2,2H2c-1.1,0-2-0.9-2-2V13v-0.3
										C0.2,5.7,5.9,0,13,0z"/>
								</g>
							</g>
						</g>
					</g>
				</g>
				<g>
					<defs>
						<rect id="SVGID_00000015354611379273488380000010538542100104779164_" x="0" y="0" width="174" height="32"/>
					</defs>
					<clipPath id="SVGID_00000008150107882425568520000017679294999588000940_">
						<use xlink:href="#SVGID_00000015354611379273488380000010538542100104779164_"  style="overflow:visible;"/>
					</clipPath>
					<g style="clip-path:url(#SVGID_00000008150107882425568520000017679294999588000940_);">
						<g>
							<defs>
								<rect id="SVGID_00000177486815358688527700000006834219660246589375_" x="0" y="0" width="158" height="32"/>
							</defs>
							<clipPath id="SVGID_00000136386220126412903230000015230967855036358545_">
								<use xlink:href="#SVGID_00000177486815358688527700000006834219660246589375_"  style="overflow:visible;"/>
							</clipPath>
							<g style="clip-path:url(#SVGID_00000136386220126412903230000015230967855036358545_);">
								<path class="st6" d="M37.3,8.8c-0.5,0-0.8-0.1-1.1-0.4s-0.5-0.7-0.5-1.2c0-0.4,0.2-0.8,0.5-1.1s0.7-0.4,1.1-0.4
									c0.4,0,0.8,0.1,1.1,0.4s0.5,0.6,0.5,1.2c0,0.5-0.2,0.9-0.5,1.1S37.7,8.8,37.3,8.8z M38.9,12.1v9.2c0,0.6-0.2,1.1-0.5,1.5
									s-0.7,0.5-1.2,0.5s-0.8-0.2-1.1-0.5s-0.4-0.8-0.4-1.4v-9.1c0-0.6,0.2-1.1,0.4-1.4s0.7-0.5,1.1-0.5s0.9,0.2,1.2,0.5
									S38.9,11.5,38.9,12.1z"/>
								<path class="st6" d="M46.9,7.6l6.7,10.1V7.5c0-0.7,0.1-1.2,0.4-1.5s0.7-0.5,1.2-0.5c0.5,0,0.9,0.2,1.2,0.5s0.4,0.8,0.4,1.5
									V21c0,1.5-0.6,2.3-1.9,2.3c-0.3,0-0.6,0-0.8-0.1s-0.5-0.2-0.7-0.4s-0.4-0.4-0.6-0.7s-0.4-0.5-0.6-0.8l-6.5-10v10.1
									c0,0.7-0.2,1.1-0.5,1.5s-0.7,0.5-1.2,0.5c-0.5,0-0.9-0.2-1.2-0.5s-0.5-0.8-0.5-1.5V8.1c0-0.6,0.1-1,0.2-1.3
									c0.2-0.4,0.4-0.6,0.7-0.9s0.7-0.3,1.1-0.3c0.3,0,0.6,0.1,0.8,0.1s0.4,0.2,0.6,0.4s0.3,0.4,0.5,0.7S46.8,7.3,46.9,7.6z"/>
								<path class="st6" d="M70.9,8.5H64v4.4h5.7c0.5,0,0.9,0.1,1.2,0.4s0.4,0.6,0.4,1s-0.1,0.7-0.4,1s-0.7,0.4-1.2,0.4H64v5.7
									c0,0.7-0.2,1.2-0.5,1.6s-0.7,0.5-1.2,0.5c-0.5,0-0.9-0.2-1.3-0.5s-0.5-0.9-0.5-1.6V8c0-0.5,0.1-0.9,0.2-1.2s0.4-0.6,0.7-0.7
									s0.7-0.2,1.2-0.2h8.2c0.6,0,1,0.1,1.2,0.4s0.4,0.6,0.4,1c0,0.4-0.1,0.7-0.4,1S71.5,8.5,70.9,8.5z"/>
								<path class="st6" d="M86.3,8.7h-3.8v12.5c0,0.7-0.2,1.2-0.5,1.6s-0.7,0.5-1.2,0.5c-0.5,0-0.9-0.2-1.3-0.5S79,21.9,79,21.2
									V8.7h-3.8c-0.6,0-1-0.1-1.3-0.4s-0.4-0.6-0.4-1c0-0.4,0.2-0.8,0.4-1.1s0.7-0.4,1.3-0.4h11.1c0.6,0,1.1,0.1,1.3,0.4
									s0.4,0.6,0.4,1s-0.2,0.8-0.4,1S86.9,8.7,86.3,8.7z"/>
								<path class="st6" d="M100.2,19.1c0,0.9-0.2,1.6-0.6,2.3s-1.1,1.1-1.9,1.4s-1.9,0.5-3.1,0.5c-1.2,0-2.1-0.2-2.9-0.5
									s-1.4-0.8-1.8-1.3s-0.6-1.1-0.6-1.6c0-0.4,0.1-0.6,0.4-0.9s0.6-0.4,0.9-0.4c0.3,0,0.6,0.1,0.8,0.2s0.3,0.4,0.5,0.7
									c0.3,0.6,0.7,1,1.2,1.3s1.1,0.4,1.9,0.4c0.6,0,1.2-0.1,1.6-0.4s0.6-0.6,0.6-1c0-0.6-0.2-1-0.6-1.2s-1.1-0.5-2.1-0.7
									c-1.1-0.3-2-0.6-2.7-0.9s-1.2-0.7-1.7-1.2c-0.4-0.5-0.6-1.1-0.6-1.8c0-0.6,0.2-1.2,0.6-1.8s0.9-1,1.7-1.4s1.7-0.5,2.7-0.5
									c0.8,0,1.6,0.1,2.2,0.3s1.2,0.4,1.7,0.7s0.8,0.6,1,1s0.3,0.7,0.3,1c0,0.4-0.1,0.7-0.4,0.9s-0.6,0.4-1.1,0.4
									c-0.3,0-0.6-0.1-0.8-0.3s-0.5-0.5-0.8-0.8c-0.2-0.3-0.5-0.6-0.9-0.8s-0.8-0.3-1.3-0.3c-0.6,0-1.1,0.1-1.4,0.4
									s-0.6,0.5-0.6,0.9c0,0.3,0.1,0.6,0.4,0.8s0.7,0.4,1.1,0.5s1.1,0.3,2,0.5c1,0.2,1.8,0.5,2.4,0.9s1.1,0.7,1.4,1.2
									S100.2,18.5,100.2,19.1z"/>
								<path class="st6" d="M105.9,12.1v0.4c0.6-0.7,1.2-1.3,1.9-1.6s1.4-0.5,2.2-0.5c1,0,1.9,0.2,2.7,0.8s1.5,1.2,2,2.2
									s0.7,2.1,0.7,3.5c0,1-0.1,1.9-0.4,2.7s-0.7,1.5-1.1,2.1s-1.1,1-1.7,1.3s-1.4,0.5-2.1,0.5c-0.9,0-1.7-0.2-2.3-0.5
									s-1.2-0.9-1.8-1.6v4.8c0,1.4-0.5,2.1-1.5,2.1c-0.6,0-1-0.2-1.2-0.5s-0.3-0.9-0.3-1.6V12.1c0-0.6,0.1-1.1,0.4-1.4
									s0.6-0.5,1.1-0.5c0.4,0,0.8,0.1,1.1,0.5S105.9,11.5,105.9,12.1z M112.1,16.7c0-0.8-0.1-1.6-0.4-2.2s-0.6-1.1-1.1-1.4
									s-1-0.5-1.5-0.5c-0.9,0-1.6,0.4-2.2,1s-0.9,1.7-0.9,3.1c0,1.3,0.3,2.3,0.9,3s1.3,1.1,2.2,1.1c0.5,0,1-0.1,1.5-0.5
									s0.8-0.8,1.1-1.4S112.1,17.6,112.1,16.7z"/>
								<path class="st6" d="M126,21.5c-0.8,0.6-1.5,1-2.2,1.4s-1.5,0.5-2.4,0.5c-0.8,0-1.5-0.2-2.2-0.5s-1.1-0.8-1.4-1.3
									s-0.5-1.2-0.5-1.8c0-0.9,0.3-1.6,0.8-2.2s1.3-1,2.3-1.2c0.2,0,0.7-0.1,1.5-0.3c0.8-0.2,1.5-0.3,2.1-0.5s1.2-0.3,1.9-0.5
									c0-0.8-0.2-1.5-0.5-1.9s-0.9-0.6-1.9-0.6c-0.8,0-1.4,0.1-1.8,0.3s-0.8,0.6-1.1,1s-0.5,0.8-0.6,0.9s-0.4,0.2-0.8,0.2
									c-0.4,0-0.7-0.1-0.9-0.4s-0.4-0.5-0.4-0.9c0-0.6,0.2-1.1,0.6-1.6s1-1,1.9-1.3s1.9-0.5,3.1-0.5c1.4,0,2.5,0.2,3.3,0.5
									s1.4,0.9,1.7,1.6s0.5,1.7,0.5,2.9c0,0.8,0,1.4,0,1.9s0,1.1,0,1.8c0,0.6,0.1,1.2,0.3,1.9s0.3,1.1,0.3,1.3
									c0,0.3-0.1,0.6-0.5,0.9s-0.7,0.4-1.1,0.4c-0.3,0-0.6-0.1-1-0.5S126.4,22.1,126,21.5z M125.8,16.9c-0.5,0.2-1.1,0.4-2,0.5
									s-1.5,0.3-1.9,0.4s-0.7,0.3-1,0.5s-0.5,0.6-0.5,1.1c0,0.5,0.2,0.9,0.6,1.2s0.9,0.5,1.4,0.5c0.6,0,1.2-0.1,1.8-0.4
									s0.9-0.6,1.2-1.1c0.3-0.5,0.4-1.3,0.4-2.4V16.9z"/>
								<path class="st6" d="M143.7,19.3c0,0.4-0.1,0.8-0.4,1.3s-0.6,0.9-1.1,1.3s-1.1,0.7-1.9,1s-1.6,0.4-2.5,0.4
									c-2,0-3.5-0.6-4.6-1.7s-1.7-2.7-1.7-4.6c0-1.3,0.2-2.5,0.8-3.5s1.2-1.8,2.2-2.3s2.1-0.8,3.4-0.8c0.8,0,1.6,0.1,2.3,0.4
									s1.3,0.5,1.8,0.9s0.9,0.8,1.1,1.2s0.4,0.8,0.4,1.2c0,0.4-0.1,0.7-0.4,1s-0.6,0.4-1,0.4c-0.3,0-0.5-0.1-0.7-0.2
									s-0.4-0.4-0.6-0.7c-0.4-0.6-0.8-1-1.2-1.3s-1-0.5-1.6-0.5c-0.9,0-1.7,0.4-2.3,1.1s-0.9,1.8-0.9,3c0,0.6,0.1,1.1,0.2,1.7
									s0.4,0.9,0.6,1.3s0.6,0.6,1,0.8s0.8,0.3,1.3,0.3c0.6,0,1.2-0.1,1.6-0.5s0.9-0.8,1.2-1.4c0.2-0.4,0.4-0.6,0.6-0.8
									s0.5-0.3,0.8-0.3c0.4,0,0.7,0.1,1,0.5S143.7,19,143.7,19.3z"/>
								<path class="st6" d="M155.4,17.6h-6.3c0,0.7,0.1,1.4,0.4,1.9s0.7,1,1.1,1.2s1,0.4,1.6,0.4c0.4,0,0.7,0,1.1-0.1
									s0.6-0.2,0.9-0.4s0.6-0.4,0.8-0.6s0.6-0.5,1-0.9c0.2-0.1,0.4-0.2,0.7-0.2c0.3,0,0.6,0.1,0.8,0.3s0.3,0.4,0.3,0.8
									c0,0.3-0.1,0.6-0.3,1s-0.6,0.8-1,1.1s-1,0.6-1.7,0.9s-1.5,0.4-2.4,0.4c-2.1,0-3.6-0.6-4.8-1.8s-1.7-2.8-1.7-4.8
									c0-0.9,0.1-1.8,0.4-2.6s0.7-1.5,1.2-2.1s1.2-1,2-1.3s1.7-0.5,2.6-0.5c1.2,0,2.3,0.3,3.2,0.8s1.6,1.2,2,2s0.7,1.7,0.7,2.5
									c0,0.8-0.2,1.3-0.7,1.6S156.2,17.6,155.4,17.6z M149.1,15.8h5.8c-0.1-1.1-0.4-1.9-0.9-2.5s-1.2-0.8-2-0.8
									c-0.8,0-1.4,0.3-2,0.8S149.2,14.7,149.1,15.8z"/>
							</g>
						</g>
					</g>
				</g>
			</g>
		</g>
	</g>
</g>
</svg>
