<?xml version="1.0" encoding="UTF-8" ?>
<!DOCTYPE svg PUBLIC "-//W3C//DTD SVG 1.1//EN" "http://www.w3.org/Graphics/SVG/1.1/DTD/svg11.dtd">
<svg width="467pt" height="110pt" viewBox="0 0 467 110" version="1.1" xmlns="http://www.w3.org/2000/svg">
<g id="#e82323ff">
<path fill="#e82323" opacity="1.00" d=" M 108.83 0.00 L 109.57 0.00 C 105.42 5.27 102.19 11.23 99.74 17.46 C 97.89 14.49 95.56 11.87 92.94 9.57 C 98.55 6.93 103.86 3.70 108.83 0.00 Z" />
</g>
<g id="#f05c3bff">
<path fill="#f05c3b" opacity="1.00" d=" M 37.96 11.13 C 41.31 9.74 44.80 8.67 48.37 8.05 C 51.56 15.85 59.21 20.34 64.13 26.91 C 60.24 26.37 56.29 26.12 52.37 26.34 C 47.79 21.06 42.81 16.16 37.96 11.13 Z" />
<path fill="#f05c3b" opacity="1.00" d=" M 82.18 44.82 C 87.79 51.39 93.44 58.31 100.93 62.82 C 100.22 66.04 99.12 69.17 97.79 72.18 C 92.57 67.65 87.78 62.67 82.93 57.76 C 83.29 53.44 82.98 49.08 82.18 44.82 Z" />
</g>
<g id="#f57f4bff">
<path fill="#f57f4b" opacity="1.00" d=" M 48.37 8.05 C 51.82 7.55 55.31 7.32 58.80 7.51 C 63.35 13.79 69.33 18.79 74.44 24.58 C 79.00 29.67 83.94 34.40 88.79 39.21 C 92.87 43.19 96.23 48.29 101.78 50.39 C 102.04 54.55 101.72 58.73 100.93 62.82 C 93.44 58.31 87.79 51.39 82.18 44.82 C 80.54 41.57 78.81 38.32 76.46 35.51 C 75.59 34.55 74.67 33.63 73.71 32.77 C 70.79 30.40 67.45 28.64 64.13 26.91 C 59.21 20.34 51.56 15.85 48.37 8.05 Z" />
</g>
<g id="#faa55bff">
<path fill="#faa55b" opacity="1.00" d=" M 58.80 7.51 C 69.82 7.96 80.19 12.92 88.27 20.28 C 89.45 19.23 90.64 18.18 91.81 17.11 C 91.07 18.44 90.27 19.75 89.70 21.16 C 91.14 24.25 93.63 26.69 95.37 29.60 C 99.35 35.79 101.32 43.09 101.78 50.39 C 96.23 48.29 92.87 43.19 88.79 39.21 C 83.94 34.40 79.00 29.67 74.44 24.58 C 69.33 18.79 63.35 13.79 58.80 7.51 Z" />
</g>
<g id="#eb3c2dff">
<path fill="#eb3c2d" opacity="1.00" d=" M 31.49 14.62 C 33.57 13.32 35.73 12.13 37.96 11.13 C 42.81 16.16 47.79 21.06 52.37 26.34 C 49.92 26.86 47.51 27.57 45.18 28.46 C 40.32 24.15 35.81 19.47 31.49 14.62 Z" />
</g>
<g id="#e12323ff">
<path fill="#e12323" opacity="1.00" d=" M 16.73 29.95 C 20.32 23.74 25.44 18.46 31.49 14.62 C 35.81 19.47 40.32 24.15 45.18 28.46 C 38.70 31.54 33.47 37.01 30.79 43.67 C 24.77 40.66 20.76 35.13 16.73 29.95 Z" />
<path fill="#e12323" opacity="1.00" d=" M 63.92 79.20 C 71.02 76.86 77.14 71.75 80.44 65.01 C 84.64 69.97 89.47 74.34 93.98 79.02 C 89.91 84.98 84.37 89.88 78.06 93.38 C 73.16 88.85 68.40 84.15 63.92 79.20 Z" />
</g>
<g id="#ed4632ff">
<path fill="#ed4632" opacity="1.00" d=" M 1.50 40.48 C 3.30 32.58 6.83 25.17 11.76 18.75 C 9.06 26.23 7.80 34.61 11.20 42.11 C 14.35 49.40 21.16 54.27 28.66 56.36 C 29.07 56.47 29.87 56.70 30.27 56.81 C 29.76 56.80 28.73 56.78 28.22 56.77 C 35.96 65.68 44.64 73.70 52.89 82.12 C 56.00 88.54 60.15 94.88 66.86 97.97 C 74.62 101.66 83.44 100.39 91.15 97.29 C 83.83 102.72 75.45 106.84 66.41 108.36 C 57.88 97.07 46.76 88.14 37.42 77.57 C 31.33 70.68 24.77 64.23 18.22 57.79 C 12.45 52.20 7.66 45.67 1.50 40.48 Z" />
</g>
<g id="#c72323ff">
<path fill="#c72323" opacity="1.00" d=" M 11.20 42.11 C 12.96 38.02 14.55 33.84 16.73 29.95 C 20.76 35.13 24.77 40.66 30.79 43.67 C 29.63 47.81 29.22 52.11 28.66 56.36 C 21.16 54.27 14.35 49.40 11.20 42.11 Z" />
</g>
<g id="#1a1a1aff">
<path fill="#1a1a1a" opacity="1.00" d=" M 145.03 31.09 C 149.12 31.01 153.20 30.99 157.29 30.97 C 158.14 40.97 157.30 51.02 157.69 61.04 C 157.91 63.31 157.94 66.54 160.56 67.41 C 164.91 68.68 169.53 68.05 174.00 68.18 C 179.13 68.01 184.38 68.70 189.40 67.40 C 192.28 66.77 191.93 63.29 192.28 61.03 C 192.58 51.11 192.19 41.19 192.41 31.27 C 196.58 30.90 200.77 30.88 204.95 31.09 C 205.31 41.06 205.11 51.03 205.14 61.01 C 205.00 66.33 204.61 72.55 200.20 76.24 C 195.68 79.86 189.52 79.84 184.01 80.01 C 176.33 79.94 168.64 80.23 160.97 79.80 C 156.20 79.43 150.82 78.30 147.87 74.16 C 144.86 69.74 144.96 64.12 144.83 58.99 C 144.90 49.69 144.68 40.39 145.03 31.09 Z" />
<path fill="#1a1a1a" opacity="1.00" d=" M 210.95 31.11 C 230.39 30.92 249.84 30.95 269.28 31.09 C 269.45 34.98 269.43 38.88 269.22 42.77 C 261.71 42.91 254.20 42.80 246.69 42.92 C 246.41 55.18 246.66 67.45 246.57 79.72 C 242.36 80.03 238.14 80.05 233.93 79.92 C 233.47 67.62 233.80 55.30 233.75 43.00 C 226.17 42.74 218.59 42.93 211.02 42.75 C 210.88 38.87 210.86 34.99 210.95 31.11 Z" />
<path fill="#1a1a1a" opacity="1.00" d=" M 286.35 31.47 C 293.19 30.42 300.13 31.07 307.01 30.97 C 313.47 31.07 320.15 30.48 326.36 32.59 C 330.67 33.98 333.77 37.95 334.53 42.34 C 335.65 48.49 335.30 54.78 335.30 60.99 C 335.15 66.35 334.70 72.57 330.29 76.28 C 325.43 80.10 318.85 79.84 313.00 80.02 C 304.73 79.87 296.43 80.35 288.19 79.67 C 283.24 79.24 277.78 77.32 275.52 72.53 C 272.90 66.74 273.67 60.19 273.53 54.01 C 273.70 48.20 273.00 41.68 276.68 36.72 C 278.87 33.54 282.66 32.01 286.35 31.47 M 289.29 43.20 C 286.38 44.00 286.41 47.51 286.27 49.93 C 286.26 55.05 285.81 60.26 286.78 65.33 C 287.55 68.48 291.43 68.27 293.98 68.46 C 301.66 68.36 309.35 68.69 317.01 68.29 C 319.17 68.24 321.61 67.23 321.84 64.78 C 322.81 59.25 322.48 53.55 322.15 47.97 C 322.01 45.92 321.35 43.18 318.85 43.02 C 313.61 42.17 308.28 42.78 303.00 42.63 C 298.44 42.74 293.77 42.13 289.29 43.20 Z" />
<path fill="#1a1a1a" opacity="1.00" d=" M 343.88 31.13 C 357.27 30.87 370.67 31.03 384.07 31.00 C 389.36 30.93 395.85 32.56 397.80 38.13 C 399.84 44.24 399.70 51.01 398.24 57.23 C 397.07 62.34 391.93 65.42 386.92 65.52 C 376.83 65.94 366.73 65.39 356.64 65.75 C 356.47 70.39 356.46 75.04 356.51 79.69 C 352.29 80.02 348.06 80.05 343.83 79.95 C 343.54 63.68 343.45 47.39 343.88 31.13 M 356.31 42.83 C 356.35 46.80 356.34 50.76 356.30 54.73 C 364.55 54.62 372.80 54.87 381.05 54.70 C 382.69 54.50 385.09 54.60 385.76 52.69 C 386.71 49.60 385.99 46.33 385.73 43.19 C 375.97 42.05 366.10 42.53 356.31 42.83 Z" />
<path fill="#1a1a1a" opacity="1.00" d=" M 408.13 37.06 C 410.75 33.13 415.62 31.70 420.09 31.26 C 427.37 30.56 434.69 31.09 441.99 30.94 C 447.93 31.05 454.22 30.69 459.74 33.28 C 464.04 35.34 465.83 40.14 467.00 44.45 L 467.00 66.53 C 465.83 70.84 464.06 75.68 459.72 77.70 C 454.21 80.29 447.93 79.87 442.00 80.02 C 434.17 79.88 426.29 80.41 418.50 79.43 C 413.83 78.87 408.95 76.54 407.04 71.98 C 404.67 66.30 405.34 59.98 405.21 53.98 C 405.38 48.30 404.80 42.03 408.13 37.06 M 420.43 43.42 C 418.03 44.53 418.25 47.70 417.99 49.92 C 417.96 55.08 417.48 60.35 418.62 65.42 C 419.51 68.55 423.31 68.51 425.94 68.66 C 432.96 68.65 440.00 68.74 447.03 68.61 C 449.36 68.45 452.64 68.26 453.48 65.60 C 454.60 60.13 454.20 54.47 454.03 48.92 C 453.91 46.67 453.64 43.47 450.81 43.09 C 445.60 42.12 440.25 42.80 434.99 42.58 C 430.14 42.67 425.13 41.97 420.43 43.42 Z" />
</g>
<g id="#fec569ff">
<path fill="#fec569" opacity="1.00" d=" M 73.71 32.77 C 74.67 33.63 75.59 34.55 76.46 35.51 C 69.73 43.58 62.81 51.53 56.92 60.26 C 54.35 57.66 51.90 54.95 49.58 52.13 C 58.07 46.28 66.08 39.71 73.71 32.77 Z" />
</g>
<g id="#e92825ff">
<path fill="#e92825" opacity="1.00" d=" M 1.50 40.48 C 7.66 45.67 12.45 52.20 18.22 57.79 C 24.77 64.23 31.33 70.68 37.42 77.57 C 46.76 88.14 57.88 97.07 66.41 108.36 C 62.37 109.08 58.27 109.42 54.16 109.31 C 47.66 101.68 40.08 95.08 33.47 87.55 C 26.87 80.15 19.44 73.57 12.86 66.16 C 8.74 61.50 4.60 56.86 0.00 52.67 L 0.00 46.65 C 0.44 44.58 0.97 42.53 1.50 40.48 Z" />
</g>
<g id="#f6854eff">
<path fill="#f6854e" opacity="1.00" d=" M 40.97 56.20 C 43.99 55.19 46.89 53.84 49.58 52.13 C 51.90 54.95 54.35 57.66 56.92 60.26 C 55.01 63.33 53.61 66.70 52.64 70.19 C 47.98 66.75 43.94 62.58 40.19 58.19 C 40.38 57.69 40.77 56.70 40.97 56.20 Z" />
</g>
<g id="#cb2323ff">
<path fill="#cb2323" opacity="1.00" d=" M 0.00 52.67 C 4.60 56.86 8.74 61.50 12.86 66.16 C 19.44 73.57 26.87 80.15 33.47 87.55 C 40.08 95.08 47.66 101.68 54.16 109.31 C 49.71 109.10 45.28 108.41 40.99 107.22 C 35.09 99.76 27.69 93.72 21.39 86.62 C 15.23 79.74 9.04 72.83 1.82 67.03 C 1.03 63.85 0.41 60.62 0.00 57.36 L 0.00 52.67 Z" />
</g>
<g id="#f1623fff">
<path fill="#f1623f" opacity="1.00" d=" M 30.27 56.81 C 33.84 56.95 37.44 56.84 40.97 56.20 C 40.77 56.70 40.38 57.69 40.19 58.19 C 43.94 62.58 47.98 66.75 52.64 70.19 C 52.32 73.57 52.41 76.99 52.68 80.37 C 52.73 80.81 52.84 81.68 52.89 82.12 C 44.64 73.70 35.96 65.68 28.22 56.77 C 28.73 56.78 29.76 56.80 30.27 56.81 Z" />
</g>
<g id="#eb3b2dff">
<path fill="#eb3b2d" opacity="1.00" d=" M 82.93 57.76 C 87.78 62.67 92.57 67.65 97.79 72.18 C 96.68 74.54 95.40 76.83 93.98 79.02 C 89.47 74.34 84.64 69.97 80.44 65.01 C 81.45 62.66 82.29 60.24 82.93 57.76 Z" />
</g>
<g id="#ae2323ff">
<path fill="#ae2323" opacity="1.00" d=" M 1.82 67.03 C 9.04 72.83 15.23 79.74 21.39 86.62 C 27.69 93.72 35.09 99.76 40.99 107.22 C 22.03 102.08 6.36 86.19 1.82 67.03 Z" />
</g>
<g id="#c82323ff">
<path fill="#c82323" opacity="1.00" d=" M 52.68 80.37 C 56.44 80.11 60.22 79.92 63.92 79.20 C 68.40 84.15 73.16 88.85 78.06 93.38 C 74.48 95.26 70.64 96.57 66.86 97.97 C 60.15 94.88 56.00 88.54 52.89 82.12 C 52.84 81.68 52.73 80.81 52.68 80.37 Z" />
</g>
</svg>
